<svg width="802" height="725" viewBox="0 0 802 725" fill="none" xmlns="http://www.w3.org/2000/svg">
<g filter="url(#filter0_d)">
<path d="M412 52C412 46.4772 416.477 42 422 42H730C735.523 42 740 46.4772 740 52V287C740 292.523 735.523 297 730 297H422C416.477 297 412 292.523 412 287V52Z" fill="#23252B"/>
<path d="M434.432 83H432.955V74.4688H434.432V83ZM443.221 83H441.739L437.936 76.9473V83H436.454V74.4688H437.936L441.751 80.5449V74.4688H443.221V83ZM451.683 80.2227C451.597 81.1328 451.261 81.8438 450.675 82.3555C450.089 82.8633 449.31 83.1172 448.337 83.1172C447.658 83.1172 447.058 82.957 446.539 82.6367C446.023 82.3125 445.625 81.8535 445.343 81.2598C445.062 80.666 444.916 79.9766 444.904 79.1914V78.3945C444.904 77.5898 445.046 76.8809 445.332 76.2676C445.617 75.6543 446.025 75.1816 446.556 74.8496C447.091 74.5176 447.709 74.3516 448.408 74.3516C449.349 74.3516 450.107 74.6074 450.681 75.1191C451.255 75.6309 451.589 76.3535 451.683 77.2871H450.207C450.136 76.6738 449.957 76.2324 449.668 75.9629C449.382 75.6895 448.962 75.5527 448.408 75.5527C447.763 75.5527 447.267 75.7891 446.92 76.2617C446.576 76.7305 446.4 77.4199 446.392 78.3301V79.0859C446.392 80.0078 446.556 80.7109 446.884 81.1953C447.216 81.6797 447.701 81.9219 448.337 81.9219C448.92 81.9219 449.357 81.791 449.65 81.5293C449.943 81.2676 450.129 80.832 450.207 80.2227H451.683ZM460.022 78.957C460.022 79.793 459.877 80.5273 459.588 81.1602C459.299 81.7891 458.885 82.2734 458.346 82.6133C457.811 82.9492 457.194 83.1172 456.495 83.1172C455.803 83.1172 455.186 82.9492 454.643 82.6133C454.104 82.2734 453.686 81.791 453.389 81.166C453.096 80.541 452.948 79.8203 452.944 79.0039V78.5234C452.944 77.6914 453.09 76.957 453.383 76.3203C453.68 75.6836 454.096 75.1973 454.631 74.8613C455.17 74.5215 455.788 74.3516 456.483 74.3516C457.178 74.3516 457.793 74.5195 458.329 74.8555C458.868 75.1875 459.284 75.668 459.577 76.2969C459.87 76.9219 460.018 77.6504 460.022 78.4824V78.957ZM458.539 78.5117C458.539 77.5664 458.36 76.8418 458 76.3379C457.645 75.834 457.139 75.582 456.483 75.582C455.842 75.582 455.34 75.834 454.977 76.3379C454.618 76.8379 454.434 77.5469 454.426 78.4648V78.957C454.426 79.8945 454.608 80.6191 454.971 81.1309C455.338 81.6426 455.846 81.8984 456.495 81.8984C457.151 81.8984 457.655 81.6484 458.006 81.1484C458.362 80.6484 458.539 79.918 458.539 78.957V78.5117ZM463.62 74.4688L466.081 81.0078L468.536 74.4688H470.452V83H468.976V80.1875L469.122 76.4258L466.603 83H465.542L463.029 76.4316L463.175 80.1875V83H461.698V74.4688H463.62ZM477.396 79.1914H473.893V81.8164H477.988V83H472.41V74.4688H477.947V75.6641H473.893V78.0195H477.396V79.1914Z" fill="white" fill-opacity="0.51"/>
<rect x="412" y="184" width="328" height="1" fill="#383941"/>
<rect x="412" y="123" width="328" height="1" fill="#383941"/>
<rect x="412" y="245" width="328" height="1" fill="#383941"/>
<rect x="412" y="296" width="328" height="1" fill="#27282E"/>
<rect x="519" y="220" width="52" height="26" rx="4" fill="#00B9B9"/>
<rect x="580" y="123" width="52" height="123" rx="4" fill="#00CFCF"/>
<rect x="545" y="264" width="69" height="10" rx="5" fill="#393C44"/>
<rect x="528" y="198" width="34" height="10" rx="5" fill="#393C44"/>
<rect x="589" y="101" width="34" height="10" rx="5" fill="#393C44"/>
<path d="M708.375 77.125H703.875V70.375H697.125V77.125H692.625L700.5 85L708.375 77.125ZM692.625 87.25V89.5H708.375V87.25H692.625Z" fill="#393C44"/>
</g>
<g filter="url(#filter1_d)">
<g clip-path="url(#clip0)">
<path d="M62 119C62 113.477 66.4772 109 72 109H380C385.523 109 390 113.477 390 119V354C390 359.523 385.523 364 380 364H72C66.4771 364 62 359.523 62 354V119Z" fill="#23252B"/>
<path d="M84.4316 150H82.9551V141.469H84.4316V150ZM93.2215 150H91.7391L87.9363 143.947V150H86.4539V141.469H87.9363L91.7508 147.545V141.469H93.2215V150ZM98.1793 148.143L100.347 141.469H101.976L98.9059 150H97.4703L94.4117 141.469H96.0348L98.1793 148.143ZM109.87 145.957C109.87 146.793 109.725 147.527 109.436 148.16C109.147 148.789 108.733 149.273 108.194 149.613C107.659 149.949 107.041 150.117 106.342 150.117C105.651 150.117 105.034 149.949 104.491 149.613C103.952 149.273 103.534 148.791 103.237 148.166C102.944 147.541 102.795 146.82 102.791 146.004V145.523C102.791 144.691 102.938 143.957 103.231 143.32C103.528 142.684 103.944 142.197 104.479 141.861C105.018 141.521 105.635 141.352 106.33 141.352C107.026 141.352 107.641 141.52 108.176 141.855C108.715 142.188 109.131 142.668 109.424 143.297C109.717 143.922 109.866 144.65 109.87 145.482V145.957ZM108.387 145.512C108.387 144.566 108.207 143.842 107.848 143.338C107.493 142.834 106.987 142.582 106.33 142.582C105.69 142.582 105.188 142.834 104.825 143.338C104.465 143.838 104.282 144.547 104.274 145.465V145.957C104.274 146.895 104.455 147.619 104.819 148.131C105.186 148.643 105.694 148.898 106.342 148.898C106.998 148.898 107.502 148.648 107.854 148.148C108.209 147.648 108.387 146.918 108.387 145.957V145.512ZM113.111 150H111.634V141.469H113.111V150ZM121.643 147.223C121.557 148.133 121.221 148.844 120.635 149.355C120.049 149.863 119.27 150.117 118.297 150.117C117.617 150.117 117.018 149.957 116.498 149.637C115.982 149.312 115.584 148.854 115.303 148.26C115.021 147.666 114.875 146.977 114.863 146.191V145.395C114.863 144.59 115.006 143.881 115.291 143.268C115.576 142.654 115.984 142.182 116.516 141.85C117.051 141.518 117.668 141.352 118.367 141.352C119.309 141.352 120.066 141.607 120.641 142.119C121.215 142.631 121.549 143.354 121.643 144.287H120.166C120.096 143.674 119.916 143.232 119.627 142.963C119.342 142.689 118.922 142.553 118.367 142.553C117.723 142.553 117.227 142.789 116.879 143.262C116.535 143.73 116.359 144.42 116.352 145.33V146.086C116.352 147.008 116.516 147.711 116.844 148.195C117.176 148.68 117.66 148.922 118.297 148.922C118.879 148.922 119.316 148.791 119.609 148.529C119.902 148.268 120.088 147.832 120.166 147.223H121.643ZM128.159 146.191H124.655V148.816H128.751V150H123.173V141.469H128.71V142.664H124.655V145.02H128.159V146.191ZM134.617 147.803C134.617 147.428 134.484 147.139 134.218 146.936C133.957 146.732 133.482 146.527 132.795 146.32C132.107 146.113 131.56 145.883 131.154 145.629C130.377 145.141 129.988 144.504 129.988 143.719C129.988 143.031 130.267 142.465 130.826 142.02C131.388 141.574 132.117 141.352 133.011 141.352C133.605 141.352 134.134 141.461 134.599 141.68C135.064 141.898 135.429 142.211 135.695 142.617C135.961 143.02 136.093 143.467 136.093 143.959H134.617C134.617 143.514 134.476 143.166 134.195 142.916C133.918 142.662 133.519 142.535 133 142.535C132.515 142.535 132.138 142.639 131.869 142.846C131.603 143.053 131.47 143.342 131.47 143.713C131.47 144.025 131.615 144.287 131.904 144.498C132.193 144.705 132.67 144.908 133.334 145.107C133.998 145.303 134.531 145.527 134.933 145.781C135.336 146.031 135.63 146.32 135.818 146.648C136.005 146.973 136.099 147.354 136.099 147.791C136.099 148.502 135.826 149.068 135.279 149.49C134.736 149.908 133.998 150.117 133.064 150.117C132.447 150.117 131.879 150.004 131.359 149.777C130.843 149.547 130.441 149.23 130.152 148.828C129.867 148.426 129.724 147.957 129.724 147.422H131.207C131.207 147.906 131.367 148.281 131.687 148.547C132.007 148.812 132.466 148.945 133.064 148.945C133.58 148.945 133.966 148.842 134.224 148.635C134.486 148.424 134.617 148.146 134.617 147.803Z" fill="white" fill-opacity="0.51"/>
<rect x="122" y="178" width="135" height="10" rx="5" fill="#4F525A"/>
<rect x="122" y="197" width="86" height="10" rx="5" fill="#4F525A"/>
<rect x="82" y="245" width="135" height="10" rx="5" fill="#393C44"/>
<rect x="243" y="245" width="122" height="10" rx="5" fill="#393C44"/>
<rect x="82" y="263" width="109" height="10" rx="5" fill="#393C44"/>
<rect x="243" y="263" width="99" height="10" rx="5" fill="#393C44"/>
<rect x="82" y="281" width="51" height="10" rx="5" fill="#393C44"/>
<rect x="243" y="281" width="46" height="10" rx="5" fill="#393C44"/>
<rect x="137" y="281" width="69" height="10" rx="5" fill="#393C44"/>
<rect x="293" y="281" width="62" height="10" rx="5" fill="#393C44"/>
<rect x="82" y="299" width="77" height="10" rx="5" fill="#393C44"/>
<rect x="243" y="299" width="70" height="10" rx="5" fill="#393C44"/>
<rect x="82" y="317" width="99" height="10" rx="5" fill="#393C44"/>
<rect x="243" y="317" width="89" height="10" rx="5" fill="#393C44"/>
<rect x="164" y="299" width="47" height="10" rx="5" fill="#393C44"/>
<rect x="317" y="299" width="43" height="10" rx="5" fill="#393C44"/>
<g opacity="0.4">
<path d="M97.8337 178.833H86.5003C84.942 178.833 83.6812 180.108 83.6812 181.667L83.667 204.333C83.667 205.892 84.9278 207.167 86.4862 207.167H103.5C105.059 207.167 106.334 205.892 106.334 204.333V187.333L97.8337 178.833ZM100.667 201.5H89.3337V198.667H100.667V201.5ZM100.667 195.833H89.3337V193H100.667V195.833ZM96.417 188.75V180.958L104.209 188.75H96.417Z" fill="#686B74"/>
</g>
<circle cx="349" cy="183" r="20" fill="#00CF15"/>
<path d="M341.5 183.313L346.501 188L356.5 178.625" stroke="white" stroke-width="2.5" stroke-linecap="round" stroke-linejoin="round"/>
</g>
</g>
<g filter="url(#filter2_d)">
<path d="M412 329C412 323.477 416.477 319 422 319H730C735.523 319 740 323.477 740 329V564C740 569.523 735.523 574 730 574H422C416.477 574 412 569.523 412 564V329Z" fill="#23252B"/>
<path d="M437.854 356.191H434.35V358.816H438.445V360H432.867V351.469H438.404V352.664H434.35V355.02H437.854V356.191ZM442.788 354.551L444.581 351.469H446.292L443.714 355.699L446.35 360H444.622L442.788 356.871L440.948 360H439.225L441.868 355.699L439.284 351.469H440.995L442.788 354.551ZM449.129 356.83V360H447.646V351.469H450.91C451.863 351.469 452.619 351.717 453.177 352.213C453.74 352.709 454.021 353.365 454.021 354.182C454.021 355.018 453.746 355.668 453.195 356.133C452.648 356.598 451.88 356.83 450.892 356.83H449.129ZM449.129 355.641H450.91C451.437 355.641 451.839 355.518 452.117 355.271C452.394 355.021 452.533 354.662 452.533 354.193C452.533 353.732 452.392 353.365 452.111 353.092C451.83 352.814 451.443 352.672 450.951 352.664H449.129V355.641ZM460.508 356.191H457.004V358.816H461.1V360H455.522V351.469H461.059V352.664H457.004V355.02H460.508V356.191ZM469.275 360H467.792L463.989 353.947V360H462.507V351.469H463.989L467.804 357.545V351.469H469.275V360ZM475.686 357.803C475.686 357.428 475.553 357.139 475.287 356.936C475.025 356.732 474.551 356.527 473.863 356.32C473.176 356.113 472.629 355.883 472.223 355.629C471.445 355.141 471.057 354.504 471.057 353.719C471.057 353.031 471.336 352.465 471.895 352.02C472.457 351.574 473.186 351.352 474.08 351.352C474.674 351.352 475.203 351.461 475.668 351.68C476.133 351.898 476.498 352.211 476.764 352.617C477.029 353.02 477.162 353.467 477.162 353.959H475.686C475.686 353.514 475.545 353.166 475.264 352.916C474.986 352.662 474.588 352.535 474.068 352.535C473.584 352.535 473.207 352.639 472.938 352.846C472.672 353.053 472.539 353.342 472.539 353.713C472.539 354.025 472.684 354.287 472.973 354.498C473.262 354.705 473.738 354.908 474.402 355.107C475.066 355.303 475.6 355.527 476.002 355.781C476.404 356.031 476.699 356.32 476.887 356.648C477.074 356.973 477.168 357.354 477.168 357.791C477.168 358.502 476.895 359.068 476.348 359.49C475.805 359.908 475.066 360.117 474.133 360.117C473.516 360.117 472.947 360.004 472.428 359.777C471.912 359.547 471.51 359.23 471.221 358.828C470.936 358.426 470.793 357.957 470.793 357.422H472.275C472.275 357.906 472.436 358.281 472.756 358.547C473.076 358.812 473.535 358.945 474.133 358.945C474.648 358.945 475.035 358.842 475.293 358.635C475.555 358.424 475.686 358.146 475.686 357.803ZM483.655 356.191H480.151V358.816H484.247V360H478.669V351.469H484.206V352.664H480.151V355.02H483.655V356.191ZM490.113 357.803C490.113 357.428 489.98 357.139 489.714 356.936C489.453 356.732 488.978 356.527 488.291 356.32C487.603 356.113 487.056 355.883 486.65 355.629C485.873 355.141 485.484 354.504 485.484 353.719C485.484 353.031 485.763 352.465 486.322 352.02C486.884 351.574 487.613 351.352 488.507 351.352C489.101 351.352 489.63 351.461 490.095 351.68C490.56 351.898 490.925 352.211 491.191 352.617C491.457 353.02 491.589 353.467 491.589 353.959H490.113C490.113 353.514 489.972 353.166 489.691 352.916C489.414 352.662 489.015 352.535 488.496 352.535C488.011 352.535 487.634 352.639 487.365 352.846C487.099 353.053 486.966 353.342 486.966 353.713C486.966 354.025 487.111 354.287 487.4 354.498C487.689 354.705 488.166 354.908 488.83 355.107C489.494 355.303 490.027 355.527 490.429 355.781C490.832 356.031 491.127 356.32 491.314 356.648C491.502 356.973 491.595 357.354 491.595 357.791C491.595 358.502 491.322 359.068 490.775 359.49C490.232 359.908 489.494 360.117 488.56 360.117C487.943 360.117 487.375 360.004 486.855 359.777C486.339 359.547 485.937 359.23 485.648 358.828C485.363 358.426 485.22 357.957 485.22 357.422H486.703C486.703 357.906 486.863 358.281 487.183 358.547C487.504 358.812 487.963 358.945 488.56 358.945C489.076 358.945 489.463 358.842 489.72 358.635C489.982 358.424 490.113 358.146 490.113 357.803Z" fill="white" fill-opacity="0.51"/>
<rect x="412" y="461" width="328" height="1" fill="#383941"/>
<rect x="412" y="400" width="328" height="1" fill="#383941"/>
<rect x="412" y="522" width="328" height="1" fill="#383941"/>
<rect x="412" y="573" width="328" height="1" fill="#27282E"/>
<rect x="519" y="478" width="52" height="45" rx="4" fill="#009AE1"/>
<rect x="580" y="436" width="52" height="87" rx="4" fill="#009AE1"/>
<rect x="545" y="541" width="69" height="10" rx="5" fill="#393C44"/>
<rect x="528" y="457" width="34" height="10" rx="5" fill="#393C44"/>
<rect x="589" y="414" width="34" height="10" rx="5" fill="#393C44"/>
<path d="M708.375 354.125H703.875V347.375H697.125V354.125H692.625L700.5 362L708.375 354.125ZM692.625 364.25V366.5H708.375V364.25H692.625Z" fill="#393C44"/>
</g>
<g filter="url(#filter3_d)">
<g clip-path="url(#clip1)">
<path d="M62 398C62 392.477 66.4772 388 72 388H380C385.523 388 390 392.477 390 398V633C390 638.523 385.523 643 380 643H72C66.4771 643 62 638.523 62 633V398Z" fill="#23252B"/>
<path d="M84.3496 425.83V429H82.8672V420.469H86.1309C87.084 420.469 87.8398 420.717 88.3984 421.213C88.9609 421.709 89.2422 422.365 89.2422 423.182C89.2422 424.018 88.9668 424.668 88.416 425.133C87.8691 425.598 87.1016 425.83 86.1133 425.83H84.3496ZM84.3496 424.641H86.1309C86.6582 424.641 87.0605 424.518 87.3379 424.271C87.6152 424.021 87.7539 423.662 87.7539 423.193C87.7539 422.732 87.6133 422.365 87.332 422.092C87.0508 421.814 86.6641 421.672 86.1719 421.664H84.3496V424.641ZM93.8777 425.713H92.2254V429H90.743V420.469H93.743C94.7273 420.469 95.4871 420.689 96.0223 421.131C96.5574 421.572 96.825 422.211 96.825 423.047C96.825 423.617 96.6863 424.096 96.409 424.482C96.1355 424.865 95.7527 425.16 95.2605 425.367L97.1766 428.924V429H95.5887L93.8777 425.713ZM92.2254 424.523H93.7488C94.2488 424.523 94.6395 424.398 94.9207 424.148C95.202 423.895 95.3426 423.549 95.3426 423.111C95.3426 422.654 95.2117 422.301 94.95 422.051C94.6922 421.801 94.3055 421.672 93.7898 421.664H92.2254V424.523ZM105.24 424.957C105.24 425.793 105.095 426.527 104.806 427.16C104.517 427.789 104.103 428.273 103.564 428.613C103.029 428.949 102.412 429.117 101.712 429.117C101.021 429.117 100.404 428.949 99.8609 428.613C99.3219 428.273 98.9039 427.791 98.607 427.166C98.3141 426.541 98.1656 425.82 98.1617 425.004V424.523C98.1617 423.691 98.3082 422.957 98.6012 422.32C98.898 421.684 99.3141 421.197 99.8492 420.861C100.388 420.521 101.005 420.352 101.701 420.352C102.396 420.352 103.011 420.52 103.546 420.855C104.086 421.188 104.502 421.668 104.795 422.297C105.087 422.922 105.236 423.65 105.24 424.482V424.957ZM103.757 424.512C103.757 423.566 103.578 422.842 103.218 422.338C102.863 421.834 102.357 421.582 101.701 421.582C101.06 421.582 100.558 421.834 100.195 422.338C99.8355 422.838 99.652 423.547 99.6441 424.465V424.957C99.6441 425.895 99.8258 426.619 100.189 427.131C100.556 427.643 101.064 427.898 101.712 427.898C102.369 427.898 102.873 427.648 103.224 427.148C103.58 426.648 103.757 425.918 103.757 424.957V424.512ZM108.399 425.83V429H106.916V420.469H110.18C111.133 420.469 111.889 420.717 112.448 421.213C113.01 421.709 113.291 422.365 113.291 423.182C113.291 424.018 113.016 424.668 112.465 425.133C111.918 425.598 111.151 425.83 110.163 425.83H108.399ZM108.399 424.641H110.18C110.707 424.641 111.11 424.518 111.387 424.271C111.664 424.021 111.803 423.662 111.803 423.193C111.803 422.732 111.663 422.365 111.381 422.092C111.1 421.814 110.713 421.672 110.221 421.664H108.399V424.641ZM121.601 424.957C121.601 425.793 121.456 426.527 121.167 427.16C120.878 427.789 120.464 428.273 119.925 428.613C119.39 428.949 118.773 429.117 118.073 429.117C117.382 429.117 116.765 428.949 116.222 428.613C115.683 428.273 115.265 427.791 114.968 427.166C114.675 426.541 114.527 425.82 114.523 425.004V424.523C114.523 423.691 114.669 422.957 114.962 422.32C115.259 421.684 115.675 421.197 116.21 420.861C116.749 420.521 117.366 420.352 118.062 420.352C118.757 420.352 119.372 420.52 119.907 420.855C120.446 421.188 120.862 421.668 121.155 422.297C121.448 422.922 121.597 423.65 121.601 424.482V424.957ZM120.118 424.512C120.118 423.566 119.939 422.842 119.579 422.338C119.224 421.834 118.718 421.582 118.062 421.582C117.421 421.582 116.919 421.834 116.556 422.338C116.196 422.838 116.013 423.547 116.005 424.465V424.957C116.005 425.895 116.187 426.619 116.55 427.131C116.917 427.643 117.425 427.898 118.073 427.898C118.73 427.898 119.234 427.648 119.585 427.148C119.941 426.648 120.118 425.918 120.118 424.957V424.512ZM127.736 426.803C127.736 426.428 127.604 426.139 127.338 425.936C127.076 425.732 126.602 425.527 125.914 425.32C125.227 425.113 124.68 424.883 124.273 424.629C123.496 424.141 123.107 423.504 123.107 422.719C123.107 422.031 123.387 421.465 123.945 421.02C124.508 420.574 125.236 420.352 126.131 420.352C126.725 420.352 127.254 420.461 127.719 420.68C128.184 420.898 128.549 421.211 128.814 421.617C129.08 422.02 129.213 422.467 129.213 422.959H127.736C127.736 422.514 127.596 422.166 127.314 421.916C127.037 421.662 126.639 421.535 126.119 421.535C125.635 421.535 125.258 421.639 124.988 421.846C124.723 422.053 124.59 422.342 124.59 422.713C124.59 423.025 124.734 423.287 125.023 423.498C125.312 423.705 125.789 423.908 126.453 424.107C127.117 424.303 127.65 424.527 128.053 424.781C128.455 425.031 128.75 425.32 128.938 425.648C129.125 425.973 129.219 426.354 129.219 426.791C129.219 427.502 128.945 428.068 128.398 428.49C127.855 428.908 127.117 429.117 126.184 429.117C125.566 429.117 124.998 429.004 124.479 428.777C123.963 428.547 123.561 428.23 123.271 427.828C122.986 427.426 122.844 426.957 122.844 426.422H124.326C124.326 426.906 124.486 427.281 124.807 427.547C125.127 427.812 125.586 427.945 126.184 427.945C126.699 427.945 127.086 427.842 127.344 427.635C127.605 427.424 127.736 427.146 127.736 426.803ZM135.495 427.014H132.19L131.499 429H129.958L133.18 420.469H134.511L137.739 429H136.192L135.495 427.014ZM132.606 425.818H135.079L133.843 422.279L132.606 425.818ZM140.394 427.816H144.267V429H138.912V420.469H140.394V427.816ZM150.063 426.803C150.063 426.428 149.93 426.139 149.664 425.936C149.403 425.732 148.928 425.527 148.241 425.32C147.553 425.113 147.006 424.883 146.6 424.629C145.823 424.141 145.434 423.504 145.434 422.719C145.434 422.031 145.713 421.465 146.272 421.02C146.834 420.574 147.563 420.352 148.457 420.352C149.051 420.352 149.58 420.461 150.045 420.68C150.51 420.898 150.875 421.211 151.141 421.617C151.407 422.02 151.539 422.467 151.539 422.959H150.063C150.063 422.514 149.922 422.166 149.641 421.916C149.364 421.662 148.965 421.535 148.446 421.535C147.961 421.535 147.584 421.639 147.315 421.846C147.049 422.053 146.916 422.342 146.916 422.713C146.916 423.025 147.061 423.287 147.35 423.498C147.639 423.705 148.116 423.908 148.78 424.107C149.444 424.303 149.977 424.527 150.379 424.781C150.782 425.031 151.077 425.32 151.264 425.648C151.452 425.973 151.545 426.354 151.545 426.791C151.545 427.502 151.272 428.068 150.725 428.49C150.182 428.908 149.444 429.117 148.51 429.117C147.893 429.117 147.325 429.004 146.805 428.777C146.289 428.547 145.887 428.23 145.598 427.828C145.313 427.426 145.17 426.957 145.17 426.422H146.653C146.653 426.906 146.813 427.281 147.133 427.547C147.454 427.812 147.912 427.945 148.51 427.945C149.026 427.945 149.412 427.842 149.67 427.635C149.932 427.424 150.063 427.146 150.063 426.803Z" fill="white" fill-opacity="0.51"/>
<rect x="164" y="456" width="135" height="10" rx="5" fill="#393C44"/>
<rect x="164" y="474" width="109" height="10" rx="5" fill="#393C44"/>
<rect x="164" y="492" width="51" height="10" rx="5" fill="#393C44"/>
<rect x="164" y="557" width="51" height="10" rx="5" fill="#393C44"/>
<rect x="219" y="492" width="69" height="10" rx="5" fill="#393C44"/>
<path d="M171.539 592.352H167.133L166.211 595H164.156L168.453 583.625H170.227L174.531 595H172.469L171.539 592.352ZM167.688 590.758H170.984L169.336 586.039L167.688 590.758ZM179.117 593.641C179.591 593.641 179.984 593.503 180.297 593.227C180.609 592.951 180.776 592.609 180.797 592.203H182.586C182.565 592.729 182.401 593.221 182.094 593.68C181.786 594.133 181.37 594.492 180.844 594.758C180.318 595.023 179.75 595.156 179.141 595.156C177.958 595.156 177.021 594.773 176.328 594.008C175.635 593.242 175.289 592.185 175.289 590.836V590.641C175.289 589.354 175.633 588.326 176.32 587.555C177.008 586.779 177.945 586.391 179.133 586.391C180.138 586.391 180.956 586.685 181.586 587.273C182.221 587.857 182.555 588.625 182.586 589.578H180.797C180.776 589.094 180.609 588.695 180.297 588.383C179.99 588.07 179.596 587.914 179.117 587.914C178.503 587.914 178.029 588.138 177.695 588.586C177.362 589.029 177.193 589.703 177.188 590.609V590.914C177.188 591.831 177.352 592.516 177.68 592.969C178.013 593.417 178.492 593.641 179.117 593.641ZM187.492 593.641C187.966 593.641 188.359 593.503 188.672 593.227C188.984 592.951 189.151 592.609 189.172 592.203H190.961C190.94 592.729 190.776 593.221 190.469 593.68C190.161 594.133 189.745 594.492 189.219 594.758C188.693 595.023 188.125 595.156 187.516 595.156C186.333 595.156 185.396 594.773 184.703 594.008C184.01 593.242 183.664 592.185 183.664 590.836V590.641C183.664 589.354 184.008 588.326 184.695 587.555C185.383 586.779 186.32 586.391 187.508 586.391C188.513 586.391 189.331 586.685 189.961 587.273C190.596 587.857 190.93 588.625 190.961 589.578H189.172C189.151 589.094 188.984 588.695 188.672 588.383C188.365 588.07 187.971 587.914 187.492 587.914C186.878 587.914 186.404 588.138 186.07 588.586C185.737 589.029 185.568 589.703 185.562 590.609V590.914C185.562 591.831 185.727 592.516 186.055 592.969C186.388 593.417 186.867 593.641 187.492 593.641ZM196.117 595.156C194.914 595.156 193.938 594.779 193.188 594.023C192.443 593.263 192.07 592.253 192.07 590.992V590.758C192.07 589.914 192.232 589.161 192.555 588.5C192.883 587.833 193.341 587.315 193.93 586.945C194.518 586.576 195.174 586.391 195.898 586.391C197.049 586.391 197.938 586.758 198.562 587.492C199.193 588.227 199.508 589.266 199.508 590.609V591.375H193.984C194.042 592.073 194.273 592.625 194.68 593.031C195.091 593.438 195.607 593.641 196.227 593.641C197.096 593.641 197.805 593.289 198.352 592.586L199.375 593.562C199.036 594.068 198.583 594.461 198.016 594.742C197.453 595.018 196.82 595.156 196.117 595.156ZM195.891 587.914C195.37 587.914 194.948 588.096 194.625 588.461C194.307 588.826 194.104 589.333 194.016 589.984H197.633V589.844C197.591 589.208 197.422 588.729 197.125 588.406C196.828 588.078 196.417 587.914 195.891 587.914ZM208.391 590.859C208.391 592.167 208.094 593.211 207.5 593.992C206.906 594.768 206.109 595.156 205.109 595.156C204.182 595.156 203.44 594.852 202.883 594.242V598.25H200.984V586.547H202.734L202.812 587.406C203.37 586.729 204.128 586.391 205.086 586.391C206.117 586.391 206.924 586.776 207.508 587.547C208.096 588.312 208.391 589.378 208.391 590.742V590.859ZM206.5 590.695C206.5 589.852 206.331 589.182 205.992 588.688C205.659 588.193 205.18 587.945 204.555 587.945C203.779 587.945 203.221 588.266 202.883 588.906V592.656C203.227 593.312 203.789 593.641 204.57 593.641C205.174 593.641 205.646 593.398 205.984 592.914C206.328 592.424 206.5 591.685 206.5 590.695ZM212.383 584.492V586.547H213.875V587.953H212.383V592.672C212.383 592.995 212.445 593.229 212.57 593.375C212.701 593.516 212.93 593.586 213.258 593.586C213.477 593.586 213.698 593.56 213.922 593.508V594.977C213.49 595.096 213.073 595.156 212.672 595.156C211.214 595.156 210.484 594.352 210.484 592.742V587.953H209.094V586.547H210.484V584.492H212.383ZM219.055 595.156C217.852 595.156 216.875 594.779 216.125 594.023C215.38 593.263 215.008 592.253 215.008 590.992V590.758C215.008 589.914 215.169 589.161 215.492 588.5C215.82 587.833 216.279 587.315 216.867 586.945C217.456 586.576 218.112 586.391 218.836 586.391C219.987 586.391 220.875 586.758 221.5 587.492C222.13 588.227 222.445 589.266 222.445 590.609V591.375H216.922C216.979 592.073 217.211 592.625 217.617 593.031C218.029 593.438 218.544 593.641 219.164 593.641C220.034 593.641 220.742 593.289 221.289 592.586L222.312 593.562C221.974 594.068 221.521 594.461 220.953 594.742C220.391 595.018 219.758 595.156 219.055 595.156ZM218.828 587.914C218.307 587.914 217.885 588.096 217.562 588.461C217.245 588.826 217.042 589.333 216.953 589.984H220.57V589.844C220.529 589.208 220.359 588.729 220.062 588.406C219.766 588.078 219.354 587.914 218.828 587.914ZM223.57 590.711C223.57 589.409 223.872 588.365 224.477 587.578C225.081 586.786 225.891 586.391 226.906 586.391C227.802 586.391 228.526 586.703 229.078 587.328V583H230.977V595H229.258L229.164 594.125C228.596 594.812 227.839 595.156 226.891 595.156C225.901 595.156 225.099 594.758 224.484 593.961C223.875 593.164 223.57 592.081 223.57 590.711ZM225.469 590.875C225.469 591.734 225.633 592.406 225.961 592.891C226.294 593.37 226.766 593.609 227.375 593.609C228.151 593.609 228.719 593.263 229.078 592.57V588.961C228.729 588.284 228.167 587.945 227.391 587.945C226.776 587.945 226.302 588.19 225.969 588.68C225.635 589.164 225.469 589.896 225.469 590.875Z" fill="#00CF15"/>
<rect x="109" y="589" width="95" height="6" rx="3" transform="rotate(-90 109 589)" fill="#696E7E" fill-opacity="0.63"/>
<circle cx="112" cy="479" r="20" fill="#4876F2"/>
<path opacity="0.4" d="M112.02 469.113C106.276 469.113 102.113 473.8 102.113 479C102.113 480.661 102.598 482.372 103.448 483.934C103.606 484.191 103.626 484.517 103.517 484.824L102.855 487.038C102.707 487.572 103.161 487.968 103.666 487.81L105.663 487.216C106.207 487.038 106.632 487.266 107.137 487.572C108.58 488.423 110.379 488.858 112 488.858C116.904 488.858 121.887 485.071 121.887 478.971C121.887 473.711 117.636 469.113 112.02 469.113Z" fill="white"/>
<path fill-rule="evenodd" clip-rule="evenodd" d="M111.981 480.276C111.279 480.266 110.716 479.702 110.716 479C110.716 478.308 111.289 477.735 111.981 477.745C112.683 477.745 113.247 478.308 113.247 479.01C113.247 479.702 112.683 480.276 111.981 480.276ZM107.423 480.276C106.731 480.276 106.157 479.702 106.157 479.01C106.157 478.308 106.721 477.745 107.423 477.745C108.125 477.745 108.688 478.308 108.688 479.01C108.688 479.702 108.125 480.266 107.423 480.276ZM115.273 479.01C115.273 479.702 115.837 480.276 116.539 480.276C117.241 480.276 117.805 479.702 117.805 479.01C117.805 478.308 117.241 477.745 116.539 477.745C115.837 477.745 115.273 478.308 115.273 479.01Z" fill="white" fill-opacity="0.9"/>
<circle cx="112" cy="589" r="20" fill="#00CF15"/>
<path d="M102.98 581.99C102.801 581.862 102.758 581.614 102.885 581.434C103.012 581.254 103.261 581.212 103.441 581.339L104.436 582.043C104.616 582.17 104.658 582.419 104.531 582.599C104.454 582.708 104.331 582.767 104.206 582.767C104.126 582.767 104.046 582.743 103.976 582.694L102.98 581.99Z" fill="white"/>
<path d="M105.618 581.761C105.571 581.778 105.524 581.786 105.477 581.786C105.316 581.786 105.164 581.688 105.104 581.528L104.675 580.387C104.598 580.181 104.702 579.951 104.908 579.873C105.114 579.796 105.344 579.9 105.421 580.106L105.85 581.247C105.928 581.453 105.824 581.683 105.618 581.761Z" fill="white"/>
<path d="M102.485 583.502C102.488 583.502 102.49 583.502 102.493 583.502L103.712 583.512C103.932 583.517 104.107 583.685 104.102 583.905C104.098 584.123 103.921 584.299 103.704 584.299C103.701 584.299 103.699 584.299 103.696 584.299L102.477 584.278C102.257 584.274 102.082 584.097 102.086 583.877C102.091 583.659 102.268 583.502 102.485 583.502Z" fill="white"/>
<path d="M104.944 589.584C105.148 589.422 105.39 589.312 105.646 589.261C105.629 589.23 105.613 589.199 105.598 589.167L105.438 589.007C104.822 588.391 104.757 587.421 105.288 586.751C105.538 586.435 105.886 586.225 106.272 586.147C106.244 586.096 106.22 586.044 106.197 585.991C105.778 585.383 105.785 584.567 106.249 583.98C106.5 583.663 106.847 583.452 107.234 583.374C106.915 582.788 106.956 582.057 107.381 581.519C107.704 581.112 108.186 580.879 108.705 580.879C109.121 580.879 109.513 581.027 109.82 581.299C109.867 581.035 109.977 580.78 110.153 580.557C110.475 580.15 110.958 579.917 111.477 579.917C111.928 579.917 112.351 580.092 112.669 580.41L116.71 584.451L116.726 583.912C116.733 582.993 117.483 582.248 118.403 582.248C119.307 582.248 120.046 582.966 120.079 583.862L120.886 589.728L121.549 590.499C121.946 590.961 121.92 591.66 121.488 592.09L120.502 593.074C120.806 593.531 120.753 594.155 120.356 594.551L115.728 599.171C115.507 599.392 115.213 599.513 114.901 599.513C114.645 599.513 114.392 599.427 114.189 599.271L113.222 598.529C112.293 598.31 111.268 597.811 110.175 597.046C109.221 596.378 108.185 595.488 107.097 594.4L104.797 592.099C104.457 591.76 104.279 591.29 104.307 590.809C104.335 590.329 104.567 589.882 104.944 589.584ZM109.333 581.935C109.161 581.762 108.933 581.676 108.705 581.676C108.445 581.676 108.185 581.788 108.006 582.014C107.724 582.371 107.773 582.889 108.095 583.211L108.506 583.621C108.569 583.664 108.631 583.709 108.688 583.76C108.735 583.495 108.845 583.24 109.021 583.018C109.238 582.745 109.526 582.55 109.85 582.451L109.333 581.935ZM112.105 580.973C111.932 580.801 111.705 580.714 111.477 580.714C111.217 580.714 110.957 580.827 110.778 581.052C110.496 581.409 110.545 581.927 110.867 582.25L115.578 586.912L115.594 586.372C115.598 585.853 115.839 585.389 116.215 585.083L112.105 580.973ZM120.925 591.526C121.063 591.388 121.072 591.167 120.944 591.018L120.129 590.07C120.128 590.07 120.128 590.069 120.128 590.068L119.283 583.925C119.283 583.441 118.887 583.045 118.403 583.045C117.919 583.045 117.523 583.441 117.523 583.925L117.5 584.724C118.296 584.834 118.916 585.504 118.947 586.322L119.753 592.188L119.988 592.461L120.925 591.526ZM105.36 591.536L107.661 593.836C109.626 595.801 111.679 597.378 113.483 597.771C113.538 597.783 113.59 597.806 113.634 597.84L114.674 598.639C114.741 598.691 114.822 598.716 114.901 598.716C114.997 598.716 115.093 598.679 115.165 598.607L119.793 593.987C119.931 593.849 119.94 593.627 119.812 593.479L118.996 592.531C118.996 592.53 118.996 592.53 118.996 592.529L118.151 586.386C118.151 585.902 117.755 585.506 117.271 585.506C116.787 585.506 116.391 585.902 116.391 586.386L116.349 587.835C116.342 588.076 116.144 588.233 115.938 588.233C115.837 588.233 115.735 588.196 115.652 588.113L110.973 583.434C110.8 583.261 110.572 583.175 110.345 583.175C110.085 583.175 109.824 583.287 109.646 583.513C109.363 583.87 109.413 584.388 109.735 584.71L112.958 587.933C113.125 588.1 113.125 588.372 112.958 588.539C112.873 588.624 112.762 588.666 112.651 588.666C112.54 588.666 112.429 588.624 112.345 588.539L108.201 584.396C108.028 584.223 107.801 584.136 107.573 584.136C107.313 584.137 107.053 584.249 106.874 584.474C106.592 584.831 106.641 585.35 106.963 585.672L111.087 589.796C111.257 589.965 111.257 590.24 111.087 590.41C111.004 590.493 110.894 590.535 110.785 590.535C110.675 590.535 110.566 590.493 110.482 590.41L107.24 587.168C107.067 586.995 106.839 586.908 106.611 586.908C106.351 586.908 106.091 587.021 105.913 587.246C105.63 587.603 105.679 588.122 106.002 588.444L109.213 591.655C109.387 591.829 109.387 592.11 109.213 592.284L109.208 592.289C109.128 592.369 109.023 592.409 108.918 592.409C108.813 592.409 108.708 592.369 108.628 592.289L106.636 590.298C106.457 590.118 106.217 590.024 105.977 590.024C105.787 590.024 105.597 590.084 105.439 590.209C105.016 590.543 104.99 591.166 105.36 591.536Z" fill="white"/>
<path d="M107.64 582.933L108.565 583.858L108.874 583.241L109.799 582.624L110.108 582.316L109.491 581.699L108.874 581.39L108.565 581.699L107.64 582.007V582.933Z" fill="white" fill-opacity="0.5"/>
<path d="M110.416 581.39L111.033 580.773L111.341 580.465L112.267 580.773L115.969 584.475L116.894 584.784L117.203 584.167L117.511 583.55L117.82 582.933H118.745L119.671 583.55L120.288 590.028L121.522 590.954L121.213 591.879L119.979 592.805L119.362 592.188L118.745 587.252L118.437 585.709L117.203 585.092H116.277L115.969 586.635L115.66 587.252L112.575 584.475L110.725 582.316L110.416 581.39Z" fill="white" fill-opacity="0.54"/>
<path d="M105.221 591.712L104.882 590.695L106.238 589.678L105.899 589L105.56 587.983L105.899 586.966L106.577 586.627V585.61V584.593L107.255 583.915L108.272 584.254L109.289 584.593V583.915L109.628 582.898H110.645L115.39 587.644H116.068V586.627L116.746 585.61L117.763 585.271L118.441 585.61L118.78 589.339L119.458 592.39L120.136 593.407V594.085L115.051 598.831H114.373L113.695 598.153L113.017 597.814L110.306 596.458L108.611 595.441L106.238 593.068L105.221 591.712Z" fill="white" fill-opacity="0.42"/>
</g>
</g>
<defs>
<filter id="filter0_d" x="350" y="0" width="452" height="379" filterUnits="userSpaceOnUse" color-interpolation-filters="sRGB">
<feFlood flood-opacity="0" result="BackgroundImageFix"/>
<feColorMatrix in="SourceAlpha" type="matrix" values="0 0 0 0 0 0 0 0 0 0 0 0 0 0 0 0 0 0 127 0"/>
<feOffset dy="20"/>
<feGaussianBlur stdDeviation="31"/>
<feColorMatrix type="matrix" values="0 0 0 0 0.108889 0 0 0 0 0.147 0 0 0 0 0.204167 0 0 0 0.35 0"/>
<feBlend mode="normal" in2="BackgroundImageFix" result="effect1_dropShadow"/>
<feBlend mode="normal" in="SourceGraphic" in2="effect1_dropShadow" result="shape"/>
</filter>
<filter id="filter1_d" x="0" y="67" width="452" height="379" filterUnits="userSpaceOnUse" color-interpolation-filters="sRGB">
<feFlood flood-opacity="0" result="BackgroundImageFix"/>
<feColorMatrix in="SourceAlpha" type="matrix" values="0 0 0 0 0 0 0 0 0 0 0 0 0 0 0 0 0 0 127 0"/>
<feOffset dy="20"/>
<feGaussianBlur stdDeviation="31"/>
<feColorMatrix type="matrix" values="0 0 0 0 0.108889 0 0 0 0 0.147 0 0 0 0 0.204167 0 0 0 0.35 0"/>
<feBlend mode="normal" in2="BackgroundImageFix" result="effect1_dropShadow"/>
<feBlend mode="normal" in="SourceGraphic" in2="effect1_dropShadow" result="shape"/>
</filter>
<filter id="filter2_d" x="350" y="277" width="452" height="379" filterUnits="userSpaceOnUse" color-interpolation-filters="sRGB">
<feFlood flood-opacity="0" result="BackgroundImageFix"/>
<feColorMatrix in="SourceAlpha" type="matrix" values="0 0 0 0 0 0 0 0 0 0 0 0 0 0 0 0 0 0 127 0"/>
<feOffset dy="20"/>
<feGaussianBlur stdDeviation="31"/>
<feColorMatrix type="matrix" values="0 0 0 0 0.108889 0 0 0 0 0.147 0 0 0 0 0.204167 0 0 0 0.35 0"/>
<feBlend mode="normal" in2="BackgroundImageFix" result="effect1_dropShadow"/>
<feBlend mode="normal" in="SourceGraphic" in2="effect1_dropShadow" result="shape"/>
</filter>
<filter id="filter3_d" x="0" y="346" width="452" height="379" filterUnits="userSpaceOnUse" color-interpolation-filters="sRGB">
<feFlood flood-opacity="0" result="BackgroundImageFix"/>
<feColorMatrix in="SourceAlpha" type="matrix" values="0 0 0 0 0 0 0 0 0 0 0 0 0 0 0 0 0 0 127 0"/>
<feOffset dy="20"/>
<feGaussianBlur stdDeviation="31"/>
<feColorMatrix type="matrix" values="0 0 0 0 0.108889 0 0 0 0 0.147 0 0 0 0 0.204167 0 0 0 0.35 0"/>
<feBlend mode="normal" in2="BackgroundImageFix" result="effect1_dropShadow"/>
<feBlend mode="normal" in="SourceGraphic" in2="effect1_dropShadow" result="shape"/>
</filter>
<clipPath id="clip0">
<path d="M62 119C62 113.477 66.4772 109 72 109H380C385.523 109 390 113.477 390 119V354C390 359.523 385.523 364 380 364H72C66.4771 364 62 359.523 62 354V119Z" fill="white"/>
</clipPath>
<clipPath id="clip1">
<path d="M62 398C62 392.477 66.4772 388 72 388H380C385.523 388 390 392.477 390 398V633C390 638.523 385.523 643 380 643H72C66.4771 643 62 638.523 62 633V398Z" fill="white"/>
</clipPath>
</defs>
</svg>
