<svg width="102" height="23" viewBox="0 0 102 23" fill="none" xmlns="http://www.w3.org/2000/svg">
<path d="M59.0655 8.89355H55.0909V9.2943C56.3342 9.2943 56.534 9.54755 56.534 11.046V13.7475C56.534 15.2458 56.3343 15.5202 55.0909 15.5202C54.1364 15.3937 53.4923 14.9081 52.6041 13.9796L51.5828 12.9245C52.9594 12.692 53.6919 11.8692 53.6919 10.9405C53.6919 9.78 52.6486 8.89355 50.6945 8.89355H46.7866V9.2943C48.0298 9.2943 48.2297 9.54755 48.2297 11.046V13.7475C48.2297 15.2458 48.0298 15.5202 46.7866 15.5202V15.9211H51.2051V15.5202C49.9619 15.5202 49.762 15.2458 49.762 13.7475V12.9879H50.1393L52.6041 15.9211H59.0655C62.2406 15.9211 63.6174 14.3174 63.6174 12.3967C63.6174 10.4763 62.2408 8.89355 59.0655 8.89355ZM49.7622 12.3332V9.52675H50.6724C51.6715 9.52675 52.1157 10.1809 52.1157 10.9407C52.1157 11.6794 51.6715 12.3334 50.6724 12.3334H49.7622V12.3332ZM59.1323 15.267H58.9767C58.1776 15.267 58.0665 15.0772 58.0665 14.1063V9.52675C58.0665 9.52675 59.0435 9.52675 59.1323 9.52675C61.4415 9.52675 61.8631 11.1305 61.8631 12.3757C61.8631 13.6629 61.4413 15.267 59.1323 15.267Z" fill="white" stroke="white" stroke-width="0.3"/>
<path d="M34.4195 13.1137L35.9516 8.80818C36.3959 7.56311 36.196 7.20448 34.775 7.20448V6.78223H38.9493V7.20448C37.5505 7.20448 37.2175 7.52099 36.6623 9.0616L34.1308 16.2792H33.8423L31.5772 9.67347L29.2682 16.2792H28.9795L26.5149 9.0616C25.982 7.52099 25.6268 7.20448 24.3389 7.20448V6.78223H29.2682V7.20448C27.958 7.20448 27.6026 7.49984 28.0691 8.80818L29.5567 13.1137L31.7994 6.78223H32.2214L34.4195 13.1137Z" fill="white" stroke="white" stroke-width="0.3"/>
<path d="M41.9686 16.1947C39.5263 16.1947 37.5278 14.4854 37.5278 12.3959C37.5278 10.3278 39.5265 8.61816 41.9686 8.61816C44.4111 8.61816 46.4094 10.3278 46.4094 12.3959C46.4094 14.4854 44.4111 16.1947 41.9686 16.1947ZM41.9686 9.27287C39.926 9.27287 39.2153 11.0242 39.2153 12.396C39.2153 13.7891 39.926 15.5196 41.9686 15.5196C44.0338 15.5196 44.7443 13.7891 44.7443 12.396C44.7443 11.0242 44.0338 9.27287 41.9686 9.27287Z" fill="white" stroke="white" stroke-width="0.3"/>
<path d="M69.1014 15.4984V15.9205H64.0166V15.4984C65.5044 15.4984 65.7709 15.1398 65.7709 13.0291V9.65268C65.7709 7.54196 65.5044 7.20448 64.0166 7.20448V6.78223H68.6128C70.8997 6.78223 72.1658 7.90077 72.1658 9.39944C72.1658 10.8556 70.8997 11.9951 68.6128 11.9951H67.3471V13.0289C67.3471 15.1398 67.6135 15.4984 69.1014 15.4984ZM68.6128 7.54196H67.3471V11.2143H68.6128C69.8564 11.2143 70.4336 10.3913 70.4336 9.39944C70.4336 8.38646 69.8564 7.54196 68.6128 7.54196Z" fill="white" stroke="white" stroke-width="0.3"/>
<path d="M87.4194 13.9375L87.3084 14.3172C87.1087 15.0137 86.8641 15.267 85.2877 15.267H84.9767C83.8223 15.267 83.6224 15.0137 83.6224 13.5154V12.5447C85.3544 12.5447 85.4877 12.6922 85.4877 13.7898H85.9096V10.6451H85.4877C85.4877 11.7425 85.3544 11.8902 83.6224 11.8902V9.52675H84.8434C86.4202 9.52675 86.6642 9.78 86.8641 10.4765L86.9753 10.8772H87.3304L87.1752 8.89355H80.647V9.2943C81.8903 9.2943 82.0903 9.54755 82.0903 11.046V13.7475C82.0903 15.1182 81.9205 15.4635 80.9402 15.5127C80.0085 15.3775 79.3688 14.8945 78.4936 13.9796L77.4721 12.9245C78.8488 12.692 79.5816 11.8692 79.5816 10.9405C79.5816 9.78 78.5381 8.89355 76.5841 8.89355H72.6763V9.2943C73.9195 9.2943 74.1194 9.54755 74.1194 11.046V13.7475C74.1194 15.2458 73.9197 15.5202 72.6763 15.5202V15.9211H77.095V15.5202C75.8517 15.5202 75.6517 15.2458 75.6517 13.7475V12.9879H76.0292L78.4938 15.9211H87.6195L87.7528 13.9376H87.4194V13.9375ZM75.6515 12.3332V9.52675H76.5617C77.5609 9.52675 78.0052 10.1809 78.0052 10.9407C78.0052 11.6794 77.5609 12.3334 76.5617 12.3334H75.6515V12.3332Z" fill="white" stroke="white" stroke-width="0.3"/>
<path d="M91.9269 16.1945C91.0388 16.1945 90.2615 15.7515 89.9285 15.4769C89.8174 15.5826 89.6177 15.8992 89.5734 16.1945H89.1514V13.2825H89.5955C89.7733 14.6752 90.7944 15.4982 92.1046 15.4982C92.8151 15.4982 93.3925 15.1184 93.3925 14.4854C93.3925 13.9368 92.8819 13.5146 91.9714 13.1136L90.7057 12.5439C89.8174 12.1426 89.1514 11.4461 89.1514 10.5178C89.1514 9.50478 90.1506 8.63967 91.5274 8.63967C92.2601 8.63967 92.8817 8.89291 93.2594 9.18827C93.3702 9.10386 93.4813 8.87159 93.5481 8.61816H93.9699V11.1087H93.5036C93.348 10.1167 92.7708 9.29366 91.5941 9.29366C90.9724 9.29366 90.3948 9.63132 90.3948 10.1591C90.3948 10.7077 90.8611 11.0031 91.9271 11.4675L93.1481 12.0372C94.2141 12.5226 94.6357 13.3038 94.6357 13.9368C94.6357 15.2661 93.4146 16.1945 91.9269 16.1945Z" fill="white" stroke="white" stroke-width="0.3"/>
<path d="M98.7659 16.1945C97.8776 16.1945 97.1003 15.7515 96.7675 15.4769C96.6564 15.5826 96.4567 15.8992 96.4124 16.1945H95.9904V13.2825H96.4345C96.6121 14.6752 97.6334 15.4982 98.9436 15.4982C99.6541 15.4982 100.231 15.1184 100.231 14.4854C100.231 13.9368 99.7208 13.5146 98.8102 13.1136L97.5446 12.5439C96.6564 12.1426 95.9902 11.4461 95.9902 10.5178C95.9902 9.50478 96.9894 8.63967 98.3662 8.63967C99.0989 8.63967 99.7204 8.89291 100.098 9.18827C100.209 9.10386 100.32 8.87159 100.386 8.61816H100.808V11.1087H100.342C100.187 10.1167 99.6096 9.29366 98.4329 9.29366C97.8112 9.29366 97.2336 9.63132 97.2336 10.1591C97.2336 10.7077 97.7 11.0031 98.7659 11.4675L99.9869 12.0372C101.053 12.5226 101.474 13.3038 101.474 13.9368C101.474 15.2661 100.253 16.1945 98.7659 16.1945Z" fill="white" stroke="white" stroke-width="0.3"/>
<path d="M2.1333 11.2092C2.1333 14.906 4.3937 18.1008 7.67145 19.6147L2.98406 7.4082C2.43883 8.56975 2.1333 9.85516 2.1333 11.2092Z" fill="white"/>
<path d="M18.594 10.7381C18.594 9.58384 18.1577 8.78448 17.7836 8.1623C17.2855 7.39297 16.8186 6.74147 16.8186 5.97214C16.8186 5.1136 17.5037 4.31441 18.4687 4.31441C18.5122 4.31441 18.5536 4.31957 18.596 4.32188C16.8477 2.79957 14.5185 1.87012 11.9603 1.87012C8.52733 1.87012 5.50705 3.54419 3.75 6.07983C3.98055 6.08641 4.19782 6.09103 4.38237 6.09103C5.41019 6.09103 7.0012 5.97249 7.0012 5.97249C7.53092 5.94282 7.59337 6.68229 7.06422 6.74182C7.06422 6.74182 6.53189 6.80136 5.93953 6.83086L9.51795 16.9473L11.6684 10.8174L10.1374 6.8305C9.60826 6.801 9.10697 6.74147 9.10697 6.74147C8.57744 6.71197 8.63952 5.94246 9.16905 5.97214C9.16905 5.97214 10.7918 6.09067 11.7574 6.09067C12.785 6.09067 14.3762 5.97214 14.3762 5.97214C14.9063 5.94246 14.9686 6.68193 14.4393 6.74147C14.4393 6.74147 13.9058 6.801 13.3146 6.8305L16.8657 16.8703L17.8458 13.7573C18.2707 12.4655 18.594 11.5376 18.594 10.7381Z" fill="white"/>
<path d="M12.1324 12.0264L9.18408 20.1691C10.0644 20.4151 10.9954 20.5496 11.96 20.5496C13.1043 20.5496 14.2017 20.3616 15.2232 20.0202C15.1968 19.9802 15.1729 19.9377 15.1533 19.8915L12.1324 12.0264Z" fill="white"/>
<path d="M20.5825 6.72852C20.6247 7.02601 20.6487 7.34536 20.6487 7.68889C20.6487 8.63664 20.4624 9.70204 19.9015 11.0342L16.8999 19.2825C19.8213 17.6633 21.7863 14.6551 21.7863 11.2096C21.7864 9.58582 21.35 8.05889 20.5825 6.72852Z" fill="white"/>
<path d="M11.9601 0.322266C5.64413 0.322266 0.505371 5.20606 0.505371 11.2091C0.505371 17.2128 5.64413 22.0965 11.9601 22.0965C18.2759 22.0965 23.4154 17.2128 23.4154 11.2091C23.4152 5.20606 18.2759 0.322266 11.9601 0.322266ZM11.9601 21.5974C5.93376 21.5974 1.0306 16.9372 1.0306 11.2091C1.0306 5.48134 5.93357 0.821467 11.9601 0.821467C17.9863 0.821467 22.8891 5.48134 22.8891 11.2091C22.8891 16.9372 17.9863 21.5974 11.9601 21.5974Z" fill="white"/>
</svg>
