<svg width="76" height="18" viewBox="0 0 76 18" fill="none" xmlns="http://www.w3.org/2000/svg">
<path d="M6.48505 7.11601V6.42467C6.24779 6.38664 6.00815 6.3658 5.76795 6.36232C3.44264 6.35735 1.3839 7.8816 0.685623 10.1253C-0.0126336 12.3689 0.811586 14.8112 2.72039 16.1546C1.29055 14.6067 0.893514 12.3534 1.70666 10.4011C2.5198 8.44881 4.39126 7.16222 6.48505 7.11601Z" fill="white" fill-opacity="0.5"/>
<path d="M6.61383 14.9477C7.91398 14.9459 8.98267 13.9098 9.0396 12.596V0.871267H11.1572C11.114 0.626278 11.0934 0.377756 11.0956 0.128906L8.19926 0.128906V11.8423C8.15111 13.1628 7.0799 14.2089 5.77352 14.211C5.38312 14.2077 4.9991 14.1105 4.65308 13.9277C4.87733 14.2419 5.17184 14.4982 5.51259 14.6754C5.85334 14.8527 6.23068 14.946 6.61385 14.9477H6.61383ZM15.1124 4.84939V4.19769C14.333 4.19796 13.571 3.96533 12.9219 3.529C13.4909 4.1981 14.2598 4.66159 15.1123 4.84939H15.1124Z" fill="white" fill-opacity="0.5"/>
<path d="M12.9219 3.52914C12.2825 2.79264 11.93 1.84589 11.9303 0.865723H11.1572C11.257 1.40765 11.465 1.92331 11.7684 2.38123C12.0718 2.83915 12.4643 3.22973 12.9219 3.52914ZM5.76787 9.29232C4.65216 9.29811 3.68353 10.0713 3.41856 11.1676C3.15356 12.2639 3.66022 13.4019 4.64742 13.9278C4.11252 13.1808 4.03695 12.1934 4.45181 11.372C4.86672 10.5506 5.70193 10.034 6.6138 10.0347C6.85695 10.0377 7.09842 10.0759 7.3309 10.148V7.16723C7.09349 7.13125 6.85385 7.11232 6.6138 7.11057H6.48494V9.3773C6.25125 9.31391 6.00969 9.28528 5.76785 9.29229L5.76787 9.29232Z" fill="white" fill-opacity="0.5"/>
<path d="M15.1123 4.84961V7.11633C13.6695 7.11351 12.2643 6.65157 11.0955 5.79596V11.7518C11.0893 14.7237 8.70584 17.1296 5.76782 17.1296C4.67671 17.1316 3.61188 16.7911 2.72021 16.1549C4.20828 17.7739 6.52414 18.3068 8.5581 17.4983C10.5921 16.6899 11.9297 14.7047 11.9302 12.4942V6.55531C13.1029 7.40533 14.5099 7.86125 15.9526 7.85869V4.94027C15.6701 4.93936 15.3885 4.90898 15.1122 4.84961H15.1123Z" fill="white" fill-opacity="0.5"/>
<path d="M11.0956 11.7517V5.79588C12.268 6.64658 13.6752 7.10258 15.118 7.09926V4.83251C14.2656 4.65044 13.4948 4.19299 12.9219 3.52914C12.4643 3.22973 12.0719 2.83915 11.7685 2.38123C11.4651 1.92331 11.2571 1.40765 11.1573 0.865723H9.03964V12.5961C8.99727 13.6426 8.3043 14.5472 7.31305 14.8499C6.32178 15.1527 5.24972 14.7871 4.64192 13.9391C3.65475 13.4133 3.1481 12.2752 3.41307 11.1789C3.67806 10.0826 4.64666 9.30944 5.76236 9.30365C6.00556 9.30587 6.24715 9.34402 6.47945 9.417V7.15026C4.3739 7.18633 2.48831 8.47742 1.67288 10.4414C0.857441 12.4053 1.26618 14.6711 2.71479 16.2172C3.61525 16.8323 4.68162 17.151 5.76798 17.1296C8.70599 17.1296 11.0894 14.7236 11.0956 11.7517V11.7517Z" fill="white"/>
<path d="M25.1346 17.1367H22.0726V7.06876H19.0164L19.0106 4.30897H28.4484L27.5819 7.06876H25.1346V17.1367ZM50.0348 17.1367H46.9786V7.06876H43.9107L43.9049 4.30897H53.5593L52.6928 7.06876H50.0348V17.1367ZM29.0221 8.38943H32.049V17.1367H29.0456L29.0221 8.38943ZM37.1661 12.8785L36.2703 13.755V17.1367H33.2493V4.27344H36.2703V10.249L39.2679 7.28789H42.8744L39.0864 11.0071L43.3311 17.1367H39.9998L37.1661 12.8785ZM69.1914 12.8785L68.3249 13.755V17.1367H65.298L65.2687 4.27344H68.3249V10.249L71.3167 7.28789H74.9232L71.1352 11.0071L75.3506 17.1367H72.0192L69.1914 12.8785Z" fill="white"/>
<path d="M30.5385 7.38868C31.3791 7.38868 32.0607 6.69929 32.0607 5.84888C32.0607 4.99847 31.3791 4.30908 30.5385 4.30908C29.6978 4.30908 29.0162 4.99847 29.0162 5.84888C29.0162 6.69929 29.6978 7.38868 30.5385 7.38868Z" fill="white"/>
<path d="M53.1729 11.9011C53.1738 9.16893 55.2516 6.89686 57.9444 6.68359H57.4936C54.7569 6.84507 52.6194 9.13705 52.6194 11.91C52.6194 14.683 54.7569 16.975 57.4936 17.1364H57.9444C55.2449 16.9227 53.1646 14.6402 53.1729 11.9011V11.9011Z" fill="white" fill-opacity="0.5"/>
<path d="M59.1213 6.6659H58.6647C61.3487 6.89016 63.4142 9.15915 63.4142 11.8834C63.4142 14.6077 61.3487 16.8767 58.6647 17.101H59.1213C61.9797 17.101 64.2969 14.7571 64.2969 11.8657C64.2969 8.9743 61.9797 6.63037 59.1213 6.63037V6.6659Z" fill="white" fill-opacity="0.5"/>
<path d="M58.3016 14.4479C56.9112 14.4479 55.7841 13.3078 55.7841 11.9013C55.7841 10.4949 56.9112 9.35474 58.3016 9.35474C59.692 9.35474 60.8192 10.4949 60.8192 11.9013C60.816 13.3064 59.6907 14.4447 58.3016 14.4479ZM58.3016 6.66602C55.4432 6.66602 53.126 9.00994 53.126 11.9013C53.126 14.7927 55.4432 17.1366 58.3016 17.1366C61.16 17.1366 63.4772 14.7927 63.4772 11.9013C63.4772 10.5128 62.932 9.18122 61.9613 8.19941C60.9907 7.21759 59.6743 6.66602 58.3016 6.66602V6.66602Z" fill="white"/>
</svg>
